<?xml version="1.0" encoding="utf-8"?>
<!-- Generator: Adobe Illustrator 16.0.0, SVG Export Plug-In . SVG Version: 6.00 Build 0)  -->
<!DOCTYPE svg PUBLIC "-//W3C//DTD SVG 1.1//EN" "http://www.w3.org/Graphics/SVG/1.1/DTD/svg11.dtd">
<svg version="1.1" id="Layer_1" xmlns="http://www.w3.org/2000/svg" xmlns:xlink="http://www.w3.org/1999/xlink" x="0px" y="0px"
	 width="41.738px" height="43.25px" viewBox="0 0 41.738 43.25" enable-background="new 0 0 41.738 43.25" xml:space="preserve">
<g>
	<g>
		<g>
			<path fill="none" stroke="#3082F1" stroke-miterlimit="10" d="M15.886,21.041c0-1.395,0-2.729,0-4.142c0.769,0,1.491,0,2.288,0
				c0,1.384,0,2.713,0,4.142C17.45,21.041,16.729,21.041,15.886,21.041z M17.739,18.699c0-0.514,0-0.97,0-1.393
				c-0.522,0-0.965,0-1.439,0c0,0.485,0,0.919,0,1.393C16.811,18.699,17.278,18.699,17.739,18.699z M17.793,20.574
				c0-0.485,0-0.896,0-1.334c-0.517,0-1.019,0-1.487,0c0,0.479,0,0.89,0,1.334C16.807,20.574,17.258,20.574,17.793,20.574z"/>
			<path fill="none" stroke="#3082F1" stroke-miterlimit="10" d="M11.295,21.041c0-1.395,0-2.729,0-4.142c0.767,0,1.49,0,2.287,0
				c0,1.384,0,2.713,0,4.142C12.861,21.041,12.138,21.041,11.295,21.041z M13.148,18.699c0-0.514,0-0.97,0-1.393
				c-0.524,0-0.966,0-1.438,0c0,0.485,0,0.919,0,1.393C12.225,18.699,12.687,18.699,13.148,18.699z M13.204,20.574
				c0-0.485,0-0.896,0-1.334c-0.52,0-1.02,0-1.487,0c0,0.479,0,0.89,0,1.334C12.217,20.574,12.666,20.574,13.204,20.574z"/>
			<path fill="none" stroke="#3082F1" stroke-miterlimit="10" d="M20.48,21.041c0-1.395,0-2.729,0-4.142c0.763,0,1.488,0,2.285,0
				c0,1.384,0,2.713,0,4.142C22.042,21.041,21.323,21.041,20.48,21.041z M22.329,18.699c0-0.514,0-0.97,0-1.393
				c-0.523,0-0.961,0-1.434,0c0,0.485,0,0.919,0,1.393C21.403,18.699,21.871,18.699,22.329,18.699z M22.387,20.574
				c0-0.485,0-0.896,0-1.334c-0.516,0-1.019,0-1.489,0c0,0.479,0,0.89,0,1.334C21.398,20.574,21.847,20.574,22.387,20.574z"/>
		</g>
	</g>
	<polyline fill="none" stroke="#3082F1" stroke-width="2" stroke-miterlimit="10" points="18.379,28.422 15.437,33.704 
		18.647,33.704 15.417,38.543 	"/>
	<path fill="none" stroke="#3082F1" stroke-width="2" stroke-miterlimit="10" d="M29.214,1.141c2.184,0.074,4.166,0.735,5.869,2.112
		c2.337,1.883,3.504,4.368,3.669,7.259"/>
	<path fill="none" stroke="#3082F1" stroke-width="2" stroke-miterlimit="10" d="M29.021,4.717c0.093,0.009,0.188,0.001,0.28,0.001
		c2.865,0.01,5.518,2.514,5.705,5.383c0.013,0.204,0.068,0.408,0.062,0.611"/>
	<path fill="none" stroke="#3082F1" stroke-width="2" stroke-miterlimit="10" d="M2.987,25.749c0,4.776,0,9.008,0,13.784
		c0,1.753,0.774,2.572,2.502,2.572c7.215,0.006,15.799,0.006,23.017,0c1.636,0,2.501-0.891,2.501-2.524
		c0.003-9.574,0.003-18.611,0-28.188c-0.002-1.587-0.867-2.486-2.453-2.487c-7.273-0.01-15.912-0.013-23.183,0
		C3.799,8.909,2.987,9.77,2.987,11.346C2.985,16.146,2.987,20.948,2.987,25.749z"/>
	<path fill="none" stroke="#3082F1" stroke-width="2" stroke-miterlimit="10" d="M26.721,24.317c0,0.45-0.364,0.814-0.816,0.814
		H7.894c-0.451,0-0.815-0.364-0.815-0.814V13.781c0-0.451,0.365-0.815,0.815-0.815h18.01c0.452,0,0.816,0.364,0.816,0.815V24.317z"
		/>
</g>
</svg>
