<?xml version="1.0" encoding="utf-8"?>
<!-- Generator: Adobe Illustrator 16.0.0, SVG Export Plug-In . SVG Version: 6.00 Build 0)  -->
<!DOCTYPE svg PUBLIC "-//W3C//DTD SVG 1.1//EN" "http://www.w3.org/Graphics/SVG/1.1/DTD/svg11.dtd">
<svg version="1.1" id="Layer_1" xmlns="http://www.w3.org/2000/svg" xmlns:xlink="http://www.w3.org/1999/xlink" x="0px" y="0px"
	 width="135px" height="50px" viewBox="1.701 -0.773 135 50" enable-background="new 1.701 -0.773 135 50" xml:space="preserve">
<g>
	<g>
		<path d="M6.043,17.954c1.021,0,1.829,0.427,2.429,1.281L7.522,20.05c-0.276-0.299-0.529-0.513-0.757-0.641
			c-0.227-0.129-0.484-0.191-0.773-0.191c-0.288,0-0.529,0.091-0.724,0.274c-0.193,0.184-0.291,0.446-0.291,0.79
			c0,0.257,0.098,0.465,0.291,0.624c0.194,0.161,0.436,0.311,0.724,0.449s0.599,0.274,0.932,0.407
			c0.333,0.134,0.644,0.292,0.932,0.475c0.289,0.182,0.53,0.409,0.725,0.682c0.193,0.271,0.29,0.612,0.29,1.022
			c0,0.843-0.249,1.497-0.748,1.962c-0.499,0.467-1.176,0.7-2.029,0.7c-0.434,0-0.818-0.064-1.156-0.192
			c-0.339-0.127-0.636-0.299-0.891-0.516c-0.255-0.216-0.472-0.457-0.648-0.723c-0.178-0.266-0.322-0.543-0.433-0.831l1.182-0.648
			c0.188,0.455,0.443,0.843,0.765,1.163c0.322,0.322,0.716,0.482,1.182,0.482c0.421,0,0.751-0.108,0.99-0.324
			c0.236-0.217,0.357-0.546,0.357-0.99c0-0.254-0.095-0.462-0.283-0.624c-0.189-0.159-0.428-0.305-0.716-0.432
			c-0.288-0.128-0.599-0.256-0.932-0.383c-0.332-0.128-0.643-0.289-0.932-0.482c-0.288-0.194-0.526-0.436-0.715-0.724
			c-0.189-0.289-0.283-0.66-0.283-1.115c0-0.322,0.059-0.623,0.175-0.907c0.116-0.282,0.28-0.527,0.491-0.731
			c0.21-0.206,0.468-0.368,0.773-0.491C5.324,18.015,5.666,17.954,6.043,17.954z"/>
		<path d="M22.662,26.472h-1.397v-5.606c0-1.098-0.449-1.646-1.348-1.646c-0.3,0-0.585,0.084-0.856,0.25s-0.511,0.414-0.716,0.74
			c-0.205,0.328-0.365,0.728-0.481,1.198c-0.117,0.471-0.175,1.012-0.175,1.621v3.444H16.29v-5.606c0-1.098-0.449-1.646-1.348-1.646
			c-0.299,0-0.585,0.083-0.855,0.249c-0.271,0.167-0.511,0.414-0.716,0.74c-0.206,0.328-0.366,0.727-0.482,1.198
			c-0.116,0.47-0.175,1.012-0.175,1.621v3.443h-1.397v-8.384h1.397v1.548c0.267-0.534,0.621-0.946,1.064-1.24s0.959-0.44,1.547-0.44
			s1.075,0.152,1.465,0.457c0.388,0.306,0.648,0.735,0.781,1.29c0.288-0.555,0.665-0.984,1.132-1.29
			c0.465-0.305,0.998-0.457,1.597-0.457c0.766,0,1.351,0.232,1.756,0.698c0.403,0.467,0.606,1.104,0.606,1.914V26.472z"/>
		<path d="M31.611,26.472h-1.097l-0.232-1.181c-0.267,0.388-0.614,0.703-1.04,0.947c-0.427,0.244-0.957,0.366-1.589,0.366
			c-0.355,0-0.688-0.048-0.999-0.142s-0.585-0.247-0.823-0.458s-0.427-0.473-0.565-0.789s-0.208-0.702-0.208-1.157
			c0-0.443,0.089-0.837,0.267-1.181c0.177-0.344,0.432-0.633,0.765-0.865c0.334-0.232,0.732-0.407,1.198-0.524
			c0.466-0.116,0.987-0.175,1.564-0.175h1.363v-0.365c0-0.643-0.177-1.092-0.532-1.347c-0.355-0.256-0.787-0.384-1.298-0.384
			c-0.432,0-0.81,0.115-1.131,0.342c-0.321,0.228-0.527,0.551-0.615,0.973l-1.231-0.282c0.122-0.71,0.449-1.27,0.981-1.681
			c0.532-0.41,1.198-0.615,1.996-0.615c0.467,0,0.896,0.061,1.289,0.184c0.395,0.122,0.735,0.311,1.023,0.566
			c0.288,0.255,0.514,0.581,0.675,0.981c0.161,0.398,0.24,0.876,0.24,1.43L31.611,26.472L31.611,26.472z M26.488,24.06
			c0,0.399,0.119,0.713,0.358,0.94c0.238,0.228,0.579,0.34,1.022,0.34c0.267,0,0.541-0.043,0.823-0.132
			c0.283-0.089,0.535-0.232,0.758-0.434c0.222-0.2,0.405-0.463,0.549-0.79c0.144-0.326,0.216-0.729,0.216-1.206v-0.199h-1.497
			c-0.721,0-1.272,0.128-1.655,0.383S26.488,23.583,26.488,24.06z"/>
		<path d="M38.998,19.451c-0.311-0.155-0.638-0.232-0.981-0.232c-0.288,0-0.571,0.084-0.848,0.25
			c-0.278,0.166-0.528,0.422-0.749,0.766c-0.222,0.344-0.402,0.771-0.541,1.281c-0.139,0.509-0.208,1.104-0.208,1.779v3.178h-1.397
			v-8.385h1.397v1.431c0.122-0.232,0.277-0.446,0.467-0.64c0.188-0.195,0.391-0.358,0.606-0.492
			c0.218-0.132,0.443-0.237,0.682-0.315c0.239-0.078,0.475-0.117,0.708-0.117c0.232,0,0.451,0.025,0.656,0.074
			c0.205,0.052,0.369,0.109,0.492,0.175L38.998,19.451z"/>
		<path d="M40.03,18.087h1.447v-2.512l1.397-0.882v3.394h2.196v1.266h-2.196v4.607c0,0.455,0.097,0.799,0.292,1.031
			c0.193,0.232,0.468,0.349,0.822,0.349c0.189,0,0.356-0.018,0.501-0.058c0.144-0.039,0.293-0.107,0.449-0.208l0.331,1.215
			c-0.199,0.121-0.416,0.204-0.648,0.25c-0.231,0.044-0.471,0.066-0.715,0.066c-0.71,0-1.292-0.223-1.747-0.666
			c-0.455-0.442-0.682-1.142-0.682-2.096v-4.491h-1.447L40.03,18.087L40.03,18.087z"/>
		<path d="M58.844,22.578h-6.155c0.021,0.39,0.087,0.749,0.191,1.082c0.104,0.332,0.255,0.624,0.449,0.874
			c0.192,0.249,0.434,0.446,0.724,0.59c0.287,0.145,0.62,0.216,0.997,0.216c0.621,0,1.105-0.135,1.456-0.406
			c0.35-0.271,0.641-0.669,0.874-1.19l1.229,0.533c-0.388,0.82-0.862,1.413-1.422,1.78c-0.561,0.365-1.272,0.549-2.138,0.549
			c-0.633,0-1.187-0.12-1.663-0.358s-0.874-0.558-1.189-0.955c-0.316-0.4-0.552-0.859-0.707-1.381
			c-0.156-0.521-0.232-1.065-0.232-1.631c0-0.566,0.077-1.108,0.232-1.63s0.391-0.982,0.707-1.381
			c0.315-0.399,0.712-0.719,1.189-0.956c0.477-0.239,1.03-0.358,1.663-0.358c0.621,0,1.167,0.111,1.64,0.333
			c0.471,0.222,0.867,0.515,1.189,0.881c0.321,0.366,0.563,0.788,0.724,1.266s0.241,0.976,0.241,1.497V22.578z M55.051,19.218
			c-0.653,0-1.167,0.197-1.539,0.592c-0.372,0.394-0.618,0.895-0.739,1.505h4.607c-0.122-0.599-0.372-1.098-0.749-1.497
			C56.254,19.417,55.727,19.218,55.051,19.218z"/>
		<path d="M67.845,26.472h-1.398v-5.54c0-0.576-0.125-1.006-0.373-1.289c-0.252-0.282-0.607-0.425-1.074-0.425
			c-0.311,0-0.609,0.087-0.898,0.259s-0.543,0.419-0.765,0.74c-0.224,0.323-0.399,0.715-0.534,1.182
			c-0.133,0.466-0.199,0.987-0.199,1.563v3.511h-1.397v-8.385h1.397v1.547c0.311-0.543,0.705-0.959,1.183-1.248
			c0.476-0.288,1.009-0.433,1.597-0.433c0.766,0,1.367,0.228,1.805,0.683c0.438,0.454,0.658,1.097,0.658,1.929V26.472z"/>
		<path d="M77.76,22.578h-6.156c0.023,0.39,0.088,0.749,0.191,1.082c0.105,0.332,0.256,0.624,0.449,0.874
			c0.193,0.249,0.436,0.446,0.725,0.59c0.287,0.145,0.619,0.216,0.996,0.216c0.623,0,1.107-0.135,1.457-0.406
			c0.348-0.271,0.641-0.669,0.875-1.19l1.229,0.533c-0.389,0.82-0.861,1.413-1.422,1.78c-0.561,0.365-1.273,0.549-2.139,0.549
			c-0.631,0-1.186-0.12-1.662-0.358s-0.875-0.558-1.189-0.955c-0.316-0.4-0.553-0.859-0.707-1.381
			c-0.156-0.521-0.234-1.065-0.234-1.631c0-0.566,0.078-1.108,0.234-1.63c0.154-0.521,0.391-0.982,0.707-1.381
			c0.314-0.399,0.711-0.719,1.189-0.956c0.477-0.239,1.031-0.358,1.662-0.358c0.623,0,1.168,0.111,1.641,0.333
			c0.471,0.222,0.867,0.515,1.189,0.881s0.563,0.788,0.725,1.266c0.158,0.478,0.24,0.976,0.24,1.497V22.578z M73.965,19.218
			c-0.652,0-1.166,0.197-1.537,0.592c-0.373,0.394-0.619,0.895-0.74,1.505h4.607c-0.123-0.599-0.371-1.098-0.748-1.497
			C75.17,19.417,74.642,19.218,73.965,19.218z"/>
		<path d="M84.845,19.451c-0.311-0.155-0.637-0.232-0.98-0.232c-0.289,0-0.572,0.084-0.85,0.25s-0.527,0.422-0.748,0.766
			c-0.223,0.344-0.402,0.771-0.541,1.281c-0.139,0.509-0.209,1.104-0.209,1.779v3.178h-1.396v-8.385h1.396v1.431
			c0.123-0.232,0.279-0.446,0.467-0.64c0.189-0.194,0.393-0.358,0.607-0.492c0.215-0.132,0.443-0.237,0.682-0.315
			c0.24-0.078,0.475-0.117,0.707-0.117s0.451,0.025,0.656,0.074c0.207,0.052,0.369,0.109,0.492,0.175L84.845,19.451z"/>
		<path d="M86.959,20.782c0-0.434,0.074-0.823,0.225-1.173c0.15-0.349,0.357-0.646,0.625-0.89c0.266-0.244,0.576-0.433,0.932-0.565
			c0.355-0.134,0.736-0.2,1.148-0.2c0.277,0,0.541,0.033,0.799,0.1c0.254,0.066,0.492,0.161,0.713,0.283l1.5-0.849l0.631,1.148
			L92.4,19.269c0.277,0.433,0.416,0.938,0.416,1.514c0,0.433-0.076,0.823-0.225,1.173c-0.15,0.35-0.359,0.643-0.625,0.882
			s-0.576,0.422-0.93,0.549c-0.355,0.127-0.738,0.19-1.148,0.19c-0.555,0-1.037-0.1-1.449-0.298
			c-0.365,0.177-0.549,0.449-0.549,0.813c0,0.467,0.316,0.699,0.949,0.699h1.98c0.787,0,1.422,0.194,1.904,0.582
			s0.723,0.964,0.723,1.729c0,0.521-0.094,0.965-0.283,1.331c-0.188,0.366-0.445,0.667-0.773,0.898
			c-0.326,0.232-0.703,0.401-1.131,0.507c-0.426,0.106-0.879,0.158-1.355,0.158c-0.531,0-1.018-0.061-1.455-0.184
			c-0.438-0.121-0.813-0.303-1.123-0.539c-0.311-0.239-0.553-0.531-0.723-0.875c-0.174-0.344-0.26-0.731-0.26-1.164
			c0-0.388,0.076-0.729,0.225-1.022c0.15-0.294,0.336-0.535,0.557-0.724c-0.176-0.154-0.314-0.34-0.414-0.557
			s-0.15-0.474-0.15-0.774c0-0.354,0.09-0.662,0.275-0.923c0.184-0.26,0.43-0.468,0.74-0.623c-0.189-0.232-0.34-0.502-0.451-0.808
			C87.015,21.5,86.959,21.158,86.959,20.782z M88.906,25.989c-0.111,0-0.221-0.003-0.326-0.009s-0.201-0.015-0.291-0.024
			c-0.199,0.154-0.34,0.335-0.424,0.54c-0.082,0.204-0.125,0.435-0.125,0.69c0,0.466,0.182,0.846,0.541,1.14
			c0.361,0.294,0.9,0.44,1.621,0.44c0.732,0,1.268-0.147,1.605-0.44c0.34-0.294,0.508-0.657,0.508-1.091
			c0-0.466-0.133-0.79-0.398-0.973c-0.266-0.184-0.605-0.274-1.016-0.274L88.906,25.989L88.906,25.989z M88.324,20.782
			c0,0.532,0.154,0.932,0.465,1.197s0.678,0.399,1.1,0.399c0.42,0,0.787-0.134,1.096-0.399c0.311-0.266,0.469-0.666,0.469-1.197
			c0-0.533-0.158-0.938-0.469-1.214c-0.309-0.277-0.676-0.416-1.096-0.416c-0.422,0-0.789,0.139-1.1,0.416
			C88.478,19.845,88.324,20.25,88.324,20.782z"/>
		<path d="M101.349,18.087l-4.16,11.778h-1.43l1.332-3.743l-2.945-8.035h1.529l2.131,6.057l2.08-6.057H101.349z"/>
		<path d="M14.993,44.771h-1.398v-5.606c0-1.098-0.449-1.646-1.347-1.646c-0.3,0-0.586,0.083-0.856,0.25
			c-0.271,0.166-0.511,0.413-0.716,0.74c-0.206,0.328-0.366,0.727-0.482,1.198c-0.116,0.47-0.175,1.012-0.175,1.621v3.444H8.621
			v-5.606c0-1.098-0.449-1.646-1.348-1.646c-0.3,0-0.586,0.083-0.857,0.25c-0.271,0.166-0.509,0.413-0.715,0.739
			c-0.205,0.329-0.366,0.728-0.482,1.198s-0.174,1.013-0.174,1.622v3.444H3.646v-8.385h1.398v1.547
			c0.266-0.533,0.621-0.946,1.063-1.239c0.443-0.294,0.96-0.441,1.548-0.441s1.075,0.153,1.464,0.457
			c0.389,0.306,0.648,0.735,0.782,1.29c0.288-0.555,0.665-0.984,1.132-1.29c0.465-0.304,0.997-0.457,1.597-0.457
			c0.765,0,1.35,0.233,1.755,0.699c0.404,0.467,0.607,1.104,0.607,1.913V44.771z"/>
		<path d="M24.941,40.878h-6.155c0.022,0.39,0.087,0.748,0.191,1.082c0.105,0.331,0.255,0.624,0.449,0.873
			c0.193,0.25,0.435,0.447,0.724,0.591c0.288,0.145,0.621,0.216,0.998,0.216c0.621,0,1.105-0.136,1.455-0.406
			c0.35-0.271,0.641-0.669,0.874-1.19l1.23,0.533c-0.388,0.82-0.862,1.413-1.422,1.78c-0.56,0.366-1.273,0.549-2.138,0.549
			c-0.633,0-1.188-0.12-1.664-0.358s-0.873-0.558-1.189-0.956c-0.315-0.399-0.552-0.859-0.706-1.381
			c-0.155-0.521-0.233-1.064-0.233-1.63c0-0.566,0.077-1.109,0.233-1.631c0.154-0.521,0.391-0.981,0.706-1.381
			c0.316-0.398,0.713-0.718,1.189-0.956s1.031-0.358,1.664-0.358c0.621,0,1.167,0.111,1.639,0.333s0.868,0.516,1.189,0.882
			s0.563,0.788,0.724,1.266c0.16,0.476,0.241,0.976,0.241,1.497V40.878z M21.148,37.518c-0.655,0-1.168,0.196-1.539,0.591
			c-0.372,0.395-0.619,0.895-0.74,1.506h4.608c-0.122-0.599-0.372-1.098-0.749-1.497C22.35,37.717,21.824,37.518,21.148,37.518z"/>
		<path d="M26.189,36.387h1.447v-2.513l1.397-0.882v3.394h2.195v1.265h-2.195v4.608c0,0.455,0.098,0.799,0.291,1.031
			s0.469,0.349,0.823,0.349c0.188,0,0.355-0.018,0.499-0.058c0.146-0.039,0.295-0.107,0.45-0.208l0.332,1.215
			c-0.2,0.122-0.416,0.205-0.649,0.25c-0.231,0.044-0.47,0.066-0.714,0.066c-0.711,0-1.293-0.223-1.747-0.666
			c-0.455-0.442-0.682-1.142-0.682-2.097V37.65H26.19L26.189,36.387L26.189,36.387z"/>
		<path d="M40.546,40.878H34.39c0.021,0.39,0.087,0.748,0.191,1.082c0.104,0.331,0.255,0.624,0.449,0.873
			c0.192,0.25,0.434,0.447,0.724,0.591c0.288,0.145,0.621,0.216,0.998,0.216c0.621,0,1.105-0.136,1.455-0.407
			c0.35-0.271,0.642-0.668,0.874-1.189l1.23,0.533c-0.389,0.82-0.863,1.413-1.423,1.78c-0.561,0.365-1.271,0.549-2.137,0.549
			c-0.633,0-1.188-0.12-1.664-0.358s-0.874-0.558-1.189-0.956c-0.316-0.399-0.552-0.859-0.707-1.381
			c-0.157-0.521-0.233-1.064-0.233-1.63c0-0.566,0.077-1.109,0.233-1.631c0.155-0.521,0.391-0.981,0.707-1.381
			c0.315-0.398,0.712-0.718,1.189-0.956c0.477-0.238,1.031-0.358,1.664-0.358c0.621,0,1.166,0.111,1.639,0.333
			c0.471,0.222,0.868,0.516,1.189,0.882c0.322,0.366,0.563,0.788,0.724,1.266c0.161,0.477,0.241,0.976,0.241,1.497V40.878z
			 M36.753,37.518c-0.654,0-1.168,0.196-1.54,0.591c-0.371,0.395-0.618,0.895-0.739,1.506h4.608
			c-0.123-0.599-0.372-1.098-0.749-1.497C37.956,37.717,37.429,37.518,36.753,37.518z"/>
		<path d="M47.632,37.751c-0.31-0.155-0.638-0.232-0.98-0.232c-0.289,0-0.571,0.083-0.849,0.25
			c-0.277,0.166-0.528,0.422-0.749,0.765c-0.221,0.344-0.401,0.771-0.541,1.281c-0.137,0.51-0.208,1.104-0.208,1.78v3.178h-1.397
			v-8.385h1.397v1.431c0.123-0.232,0.279-0.446,0.468-0.641c0.188-0.195,0.391-0.358,0.605-0.491
			c0.218-0.133,0.443-0.238,0.683-0.316c0.238-0.078,0.475-0.116,0.708-0.116c0.231,0,0.451,0.024,0.655,0.074
			c0.205,0.051,0.369,0.109,0.492,0.175L47.632,37.751z"/>
		<path d="M49.446,34.058c0-0.3,0.099-0.552,0.298-0.757c0.2-0.205,0.449-0.308,0.749-0.308c0.299,0,0.549,0.103,0.748,0.308
			s0.299,0.457,0.299,0.757c0,0.288-0.1,0.532-0.299,0.732c-0.199,0.199-0.449,0.299-0.748,0.299c-0.3,0-0.549-0.1-0.749-0.299
			C49.545,34.59,49.446,34.346,49.446,34.058z M51.192,36.387v8.385h-1.397v-8.385H51.192z"/>
		<path d="M60.908,44.771H59.51v-5.54c0-0.577-0.123-1.007-0.373-1.289c-0.251-0.283-0.607-0.425-1.072-0.425
			c-0.312,0-0.61,0.087-0.898,0.258c-0.29,0.173-0.544,0.42-0.766,0.741c-0.224,0.322-0.399,0.715-0.534,1.181
			c-0.133,0.467-0.199,0.988-0.199,1.564v3.511h-1.397v-8.385h1.397v1.547c0.311-0.543,0.705-0.959,1.182-1.247
			c0.477-0.289,1.01-0.434,1.598-0.434c0.766,0,1.366,0.227,1.806,0.682c0.437,0.455,0.657,1.098,0.657,1.93L60.908,44.771
			L60.908,44.771z"/>
		<path d="M63.835,39.082c0-0.434,0.075-0.824,0.226-1.173c0.15-0.35,0.357-0.646,0.625-0.891c0.264-0.243,0.574-0.432,0.93-0.565
			c0.355-0.133,0.738-0.199,1.148-0.199c0.277,0,0.543,0.033,0.799,0.1s0.494,0.161,0.715,0.282l1.498-0.848l0.633,1.147
			l-1.133,0.632c0.277,0.434,0.416,0.938,0.416,1.515c0,0.432-0.074,0.823-0.225,1.172c-0.15,0.351-0.357,0.644-0.623,0.883
			c-0.266,0.238-0.576,0.421-0.932,0.549c-0.355,0.127-0.738,0.19-1.148,0.19c-0.555,0-1.037-0.1-1.447-0.299
			c-0.365,0.178-0.549,0.449-0.549,0.814c0,0.467,0.316,0.699,0.947,0.699h1.98c0.787,0,1.424,0.194,1.906,0.582
			c0.48,0.388,0.723,0.965,0.723,1.729c0,0.521-0.094,0.965-0.283,1.332c-0.188,0.365-0.447,0.666-0.773,0.898
			c-0.328,0.232-0.705,0.401-1.131,0.507c-0.428,0.105-0.879,0.157-1.355,0.157c-0.533,0-1.02-0.06-1.457-0.184
			c-0.438-0.121-0.812-0.302-1.122-0.539c-0.312-0.239-0.552-0.53-0.724-0.874c-0.172-0.345-0.26-0.732-0.26-1.164
			c0-0.389,0.076-0.729,0.227-1.023c0.149-0.294,0.334-0.535,0.557-0.724c-0.178-0.155-0.315-0.34-0.416-0.557
			c-0.1-0.217-0.148-0.474-0.148-0.774c0-0.355,0.09-0.662,0.273-0.923c0.184-0.26,0.43-0.468,0.74-0.624
			c-0.189-0.232-0.338-0.502-0.449-0.808C63.89,39.799,63.835,39.458,63.835,39.082z M65.781,44.289
			c-0.111,0-0.219-0.003-0.324-0.008c-0.105-0.007-0.201-0.015-0.291-0.025c-0.199,0.155-0.34,0.335-0.426,0.54
			c-0.082,0.205-0.123,0.435-0.123,0.69c0,0.466,0.18,0.847,0.539,1.14c0.361,0.294,0.9,0.44,1.623,0.44
			c0.732,0,1.268-0.147,1.605-0.44c0.338-0.294,0.508-0.657,0.508-1.09c0-0.467-0.135-0.791-0.4-0.974
			c-0.266-0.184-0.604-0.274-1.016-0.274L65.781,44.289L65.781,44.289z M65.199,39.082c0,0.532,0.156,0.931,0.467,1.196
			c0.309,0.267,0.676,0.399,1.096,0.399c0.422,0,0.787-0.133,1.098-0.399c0.311-0.266,0.469-0.665,0.469-1.196
			c0-0.534-0.158-0.938-0.469-1.215c-0.311-0.276-0.676-0.416-1.098-0.416c-0.42,0-0.787,0.14-1.096,0.416
			C65.355,38.145,65.199,38.549,65.199,39.082z"/>
		<path d="M79.156,36.254c1.021,0,1.83,0.427,2.43,1.28l-0.947,0.815c-0.277-0.3-0.531-0.513-0.758-0.642
			c-0.227-0.128-0.484-0.19-0.773-0.19s-0.531,0.091-0.725,0.274s-0.291,0.446-0.291,0.79c0,0.256,0.098,0.464,0.291,0.623
			c0.193,0.162,0.436,0.312,0.725,0.449c0.289,0.14,0.6,0.274,0.932,0.408c0.332,0.133,0.643,0.292,0.932,0.475
			c0.287,0.183,0.529,0.409,0.723,0.682c0.193,0.271,0.291,0.612,0.291,1.022c0,0.843-0.248,1.497-0.748,1.963
			s-1.176,0.699-2.029,0.699c-0.434,0-0.818-0.064-1.156-0.192c-0.338-0.126-0.635-0.299-0.889-0.516
			c-0.258-0.216-0.473-0.457-0.65-0.723s-0.322-0.543-0.434-0.832l1.182-0.648c0.189,0.455,0.443,0.844,0.766,1.163
			c0.322,0.323,0.715,0.483,1.182,0.483c0.422,0,0.752-0.108,0.988-0.324c0.24-0.217,0.359-0.546,0.359-0.99
			c0-0.255-0.094-0.463-0.283-0.624c-0.189-0.159-0.428-0.305-0.715-0.433c-0.289-0.128-0.6-0.256-0.932-0.382
			c-0.334-0.128-0.643-0.29-0.932-0.483s-0.527-0.435-0.715-0.724c-0.189-0.288-0.283-0.659-0.283-1.114
			c0-0.322,0.059-0.624,0.174-0.906c0.117-0.284,0.281-0.528,0.49-0.733c0.213-0.205,0.469-0.367,0.775-0.49
			C78.437,36.314,78.779,36.254,79.156,36.254z"/>
		<path d="M83.799,40.579c0-0.566,0.092-1.108,0.273-1.631c0.184-0.521,0.451-0.981,0.799-1.381c0.35-0.398,0.771-0.718,1.264-0.956
			c0.496-0.238,1.059-0.357,1.689-0.357s1.195,0.119,1.689,0.357c0.492,0.238,0.914,0.558,1.264,0.956
			c0.35,0.399,0.615,0.859,0.797,1.381c0.186,0.522,0.275,1.064,0.275,1.631c0,0.565-0.09,1.108-0.275,1.63
			c-0.182,0.521-0.447,0.981-0.797,1.381c-0.35,0.398-0.771,0.718-1.264,0.957c-0.494,0.237-1.059,0.357-1.689,0.357
			c-0.633,0-1.195-0.12-1.689-0.357c-0.492-0.239-0.914-0.559-1.264-0.957c-0.348-0.399-0.615-0.859-0.799-1.381
			C83.89,41.688,83.799,41.145,83.799,40.579z M85.228,40.579c0,0.389,0.057,0.766,0.166,1.131c0.111,0.365,0.275,0.692,0.49,0.982
			c0.217,0.288,0.486,0.518,0.809,0.69c0.322,0.172,0.699,0.257,1.131,0.257c0.434,0,0.811-0.085,1.133-0.257
			c0.32-0.173,0.588-0.402,0.805-0.69c0.217-0.29,0.381-0.616,0.49-0.982c0.111-0.365,0.168-0.743,0.168-1.131
			s-0.057-0.766-0.168-1.132c-0.109-0.364-0.273-0.692-0.49-0.981c-0.217-0.288-0.484-0.518-0.805-0.69
			c-0.322-0.171-0.699-0.258-1.133-0.258s-0.809,0.087-1.131,0.258c-0.322,0.173-0.592,0.402-0.809,0.69
			c-0.215,0.289-0.379,0.616-0.49,0.981C85.285,39.813,85.228,40.19,85.228,40.579z"/>
		<path d="M95.642,32.993v11.778h-1.396V32.993H95.642z"/>
		<path d="M98.47,36.387h1.398v5.54c0,0.576,0.125,1.007,0.373,1.289c0.252,0.283,0.607,0.424,1.074,0.424
			c0.311,0,0.609-0.085,0.898-0.257c0.289-0.173,0.543-0.419,0.766-0.741c0.221-0.321,0.398-0.713,0.533-1.173
			c0.133-0.461,0.199-0.984,0.199-1.573v-3.51h1.398v8.385h-1.398v-1.547c-0.311,0.543-0.705,0.959-1.184,1.247
			c-0.475,0.289-1.008,0.434-1.596,0.434c-0.766,0-1.367-0.228-1.805-0.682c-0.438-0.455-0.658-1.099-0.658-1.931V36.387z"/>
		<path d="M107.056,36.387h1.447v-2.513l1.396-0.882v3.394h2.195v1.265H109.9v4.608c0,0.455,0.096,0.799,0.293,1.031
			c0.191,0.232,0.467,0.349,0.822,0.349c0.189,0,0.355-0.018,0.5-0.058c0.145-0.039,0.293-0.107,0.449-0.208l0.33,1.215
			c-0.199,0.122-0.414,0.205-0.646,0.25c-0.232,0.044-0.471,0.066-0.715,0.066c-0.711,0-1.293-0.223-1.748-0.666
			c-0.455-0.442-0.682-1.142-0.682-2.097V37.65h-1.447V36.387L107.056,36.387z"/>
		<path d="M114.127,34.058c0-0.3,0.1-0.552,0.299-0.757s0.449-0.308,0.748-0.308s0.549,0.103,0.748,0.308s0.299,0.457,0.299,0.757
			c0,0.288-0.1,0.532-0.299,0.732c-0.199,0.199-0.449,0.299-0.748,0.299s-0.549-0.1-0.748-0.299
			C114.226,34.59,114.127,34.346,114.127,34.058z M115.873,36.387v8.385h-1.396v-8.385H115.873z"/>
		<path d="M118.318,40.579c0-0.566,0.092-1.108,0.275-1.631c0.182-0.521,0.447-0.981,0.797-1.381
			c0.35-0.398,0.771-0.718,1.264-0.956c0.494-0.238,1.059-0.357,1.689-0.357c0.633,0,1.195,0.119,1.689,0.357
			c0.492,0.238,0.914,0.558,1.264,0.956c0.35,0.399,0.615,0.859,0.799,1.381c0.184,0.522,0.273,1.064,0.273,1.631
			c0,0.565-0.09,1.108-0.273,1.63s-0.449,0.981-0.799,1.381c-0.35,0.398-0.771,0.718-1.264,0.957
			c-0.494,0.237-1.059,0.357-1.689,0.357s-1.195-0.12-1.689-0.357c-0.492-0.239-0.914-0.559-1.264-0.957
			c-0.35-0.399-0.615-0.859-0.797-1.381C118.41,41.688,118.318,41.145,118.318,40.579z M119.748,40.579
			c0,0.389,0.055,0.766,0.168,1.131c0.109,0.365,0.273,0.692,0.49,0.982c0.217,0.288,0.484,0.518,0.805,0.69
			c0.324,0.172,0.701,0.257,1.133,0.257c0.434,0,0.811-0.085,1.131-0.257c0.32-0.173,0.592-0.402,0.809-0.69
			c0.215-0.29,0.379-0.616,0.49-0.982c0.109-0.365,0.166-0.743,0.166-1.131s-0.057-0.766-0.166-1.132
			c-0.111-0.364-0.275-0.692-0.49-0.981c-0.217-0.288-0.486-0.518-0.809-0.69c-0.322-0.171-0.697-0.258-1.131-0.258
			c-0.432,0-0.811,0.087-1.133,0.258c-0.32,0.173-0.588,0.402-0.805,0.69c-0.217,0.289-0.381,0.616-0.49,0.981
			C119.802,39.813,119.748,40.19,119.748,40.579z"/>
		<path d="M135.437,44.771h-1.396v-5.54c0-0.577-0.127-1.007-0.375-1.289c-0.25-0.283-0.607-0.425-1.074-0.425
			c-0.311,0-0.609,0.087-0.898,0.258c-0.289,0.173-0.541,0.42-0.764,0.741c-0.225,0.322-0.4,0.715-0.535,1.181
			c-0.131,0.467-0.199,0.988-0.199,1.564v3.511h-1.396v-8.385h1.396v1.547c0.313-0.543,0.705-0.959,1.184-1.247
			c0.477-0.289,1.01-0.434,1.598-0.434c0.764,0,1.365,0.227,1.805,0.682c0.438,0.455,0.656,1.098,0.656,1.93V44.771L135.437,44.771z
			"/>
	</g>
	<g>
		<path stroke="#000000" stroke-width="0.6" stroke-miterlimit="10" d="M116.207,14.032c0-0.956,0-1.873,0-2.842
			c0.527,0,1.025,0,1.57,0c0,0.95,0,1.862,0,2.842C117.281,14.032,116.785,14.032,116.207,14.032z M117.478,12.427
			c0-0.353,0-0.666,0-0.956c-0.359,0-0.662,0-0.988,0c0,0.334,0,0.632,0,0.956C116.844,12.427,117.164,12.427,117.478,12.427z
			 M117.517,13.713c0-0.333,0-0.615,0-0.915c-0.357,0-0.701,0-1.021,0c0,0.328,0,0.61,0,0.915
			C116.84,13.713,117.148,13.713,117.517,13.713z"/>
		<path stroke="#000000" stroke-width="0.6" stroke-miterlimit="10" d="M113.058,14.032c0-0.956,0-1.873,0-2.842
			c0.525,0,1.023,0,1.57,0c0,0.95,0,1.862,0,2.842C114.131,14.032,113.635,14.032,113.058,14.032z M114.328,12.427
			c0-0.353,0-0.666,0-0.956c-0.361,0-0.662,0-0.988,0c0,0.334,0,0.632,0,0.956C113.695,12.427,114.011,12.427,114.328,12.427z
			 M114.367,13.713c0-0.333,0-0.615,0-0.915c-0.357,0-0.699,0-1.023,0c0,0.328,0,0.61,0,0.915
			C113.687,13.713,113.998,13.713,114.367,13.713z"/>
		<path stroke="#000000" stroke-width="0.6" stroke-miterlimit="10" d="M122.511,14.032c0-0.956,0-1.873,0-2.842
			c0.525,0,1.021,0,1.568,0c0,0.95,0,1.862,0,2.842C123.584,14.032,123.088,14.032,122.511,14.032z M123.781,12.427
			c0-0.353,0-0.666,0-0.956c-0.359,0-0.662,0-0.986,0c0,0.334,0,0.632,0,0.956C123.144,12.427,123.467,12.427,123.781,12.427z
			 M123.82,13.713c0-0.333,0-0.615,0-0.915c-0.357,0-0.701,0-1.023,0c0,0.328,0,0.61,0,0.915
			C123.14,13.713,123.449,13.713,123.82,13.713z"/>
		<path stroke="#000000" stroke-width="0.6" stroke-miterlimit="10" d="M119.359,14.032c0-0.956,0-1.873,0-2.842
			c0.525,0,1.023,0,1.57,0c0,0.95,0,1.862,0,2.842C120.433,14.032,119.937,14.032,119.359,14.032z M120.631,12.427
			c0-0.353,0-0.666,0-0.956c-0.361,0-0.662,0-0.986,0c0,0.334,0,0.632,0,0.956C119.994,12.427,120.316,12.427,120.631,12.427z
			 M120.668,13.713c0-0.333,0-0.615,0-0.915c-0.355,0-0.699,0-1.021,0c0,0.328,0,0.61,0,0.915
			C119.99,13.713,120.299,13.713,120.668,13.713z"/>
	</g>
	<polyline fill="none" stroke="#41C363" stroke-width="2" stroke-miterlimit="10" points="120.039,19.368 117.564,23.018 
		120.261,23.018 117.855,26.359 	"/>
	<path fill="none" stroke="#41C363" stroke-width="1.5" stroke-miterlimit="10" d="M128.062,0.156c1.674,0.058,3.193,0.565,4.5,1.62
		c1.787,1.444,2.686,3.348,2.811,5.564"/>
	<path fill="none" stroke="#41C363" stroke-width="1.5" stroke-miterlimit="10" d="M128.179,2.724
		c0.072,0.006,0.143,0.001,0.215,0.001c2.197,0.007,4.23,1.926,4.375,4.126c0.01,0.156,0.051,0.313,0.045,0.468"/>
	<path fill="none" stroke="#000000" stroke-width="1.5" stroke-miterlimit="10" d="M107.355,17.265c0,3.276,0,6.552,0,9.828
		c0,1.203,0.533,1.765,1.717,1.766c4.953,0.005,14.168,0.005,19.123,0c1.121-0.001,1.715-0.612,1.715-1.733
		c0.004-6.57,0.004-13.144,0-19.714c0-1.09-0.596-1.705-1.684-1.707c-4.99-0.008-14.246-0.008-19.236,0.001
		c-1.08,0.002-1.635,0.593-1.635,1.673C107.353,10.674,107.355,13.97,107.355,17.265z"/>
	<path fill="none" stroke="#000000" stroke-width="1.5" stroke-miterlimit="10" d="M126.972,16.281c0,0.309-0.252,0.56-0.561,0.56
		h-15.688c-0.309,0-0.559-0.251-0.559-0.56V9.05c0-0.309,0.25-0.559,0.559-0.559h15.688c0.309,0,0.561,0.25,0.561,0.559V16.281z"/>
</g>
</svg>
