<?xml version="1.0" encoding="utf-8"?>
<!-- Generator: Adobe Illustrator 16.0.0, SVG Export Plug-In . SVG Version: 6.00 Build 0)  -->
<!DOCTYPE svg PUBLIC "-//W3C//DTD SVG 1.1//EN" "http://www.w3.org/Graphics/SVG/1.1/DTD/svg11.dtd">
<svg version="1.1" id="Layer_1" xmlns="http://www.w3.org/2000/svg" xmlns:xlink="http://www.w3.org/1999/xlink" x="0px" y="0px"
	 width="291.967px" height="68px" viewBox="0 0 291.967 68" enable-background="new 0 0 291.967 68" xml:space="preserve">
<rect y="-56.693" width="34" height="34"/>
<rect x="36.852" y="-56.693" width="34" height="34"/>
<rect x="73.704" y="-56.693" width="33.999" height="34"/>
<rect x="110.555" y="-56.693" width="34" height="34"/>
<rect x="147.408" y="-56.693" width="34.001" height="34"/>
<g>
	<g>
		<path fill="none" stroke="#FFFFFF" stroke-width="1.5" d="M9.627,23.477c-1.753,0.006-3.506,0.01-5.26,0.017
			c-0.73,0.006-0.882-0.146-0.94-0.87c-0.199-2.403,0.188-4.715,1.244-6.881c2.046-4.182,5.364-6.794,9.952-7.614
			c2.798-0.498,5.532-0.137,7.938,0.938"/>
		<path fill="none" stroke="#FFFFFF" stroke-width="1.5" d="M17.523,26.092c-1.439-0.032-2.621-0.804-3.171-2.13
			c-0.625-1.5-0.991-3.079-1.298-4.669c-0.215-1.113-0.386-2.236-0.562-3.354c-0.025-0.171-0.011-0.369,0.047-0.533
			c0.101-0.29,0.456-0.438,0.757-0.341c0.133,0.044,0.266,0.109,0.377,0.192c1.942,1.431,3.844,2.914,5.551,4.627
			c0.294,0.292,0.567,0.608,0.846,0.919c1.575,1.761,0.727,4.457-1.597,5.122C18.165,26.009,17.839,26.038,17.523,26.092z"/>
		<path fill="none" stroke="#41C363" stroke-width="1.5" d="M22.485,9.031c2.834,1.246,5.224,3.476,6.724,6.454
			c1.114,2.21,1.563,4.563,1.372,7.037c-0.01,0.111-0.01,0.223-0.018,0.334c-0.029,0.371-0.273,0.632-0.646,0.632
			c-1.914,0.001-3.229-0.005-5.145-0.015"/>
	</g>
</g>
<rect y="90.691" opacity="0.5" enable-background="new    " width="34" height="34.002"/>
<g>
	<g>
		<path fill="none" stroke="#FFFFFF" stroke-width="1.5" d="M9.627,57.493c-1.753,0.006-3.506,0.01-5.26,0.017
			c-0.73,0.008-0.882-0.146-0.94-0.869c-0.199-2.401,0.188-4.716,1.244-6.882c2.046-4.182,5.364-6.794,9.952-7.612
			c2.798-0.498,5.532-0.139,7.938,0.938"/>
		<path fill="none" stroke="#FFFFFF" stroke-width="1.5" d="M17.523,60.107c-1.439-0.031-2.621-0.803-3.171-2.129
			c-0.625-1.5-0.991-3.08-1.298-4.67c-0.215-1.113-0.386-2.235-0.562-3.354c-0.025-0.171-0.011-0.369,0.047-0.533
			c0.101-0.29,0.456-0.438,0.757-0.341c0.133,0.044,0.266,0.107,0.377,0.191c1.942,1.432,3.844,2.914,5.551,4.627
			c0.294,0.291,0.567,0.606,0.846,0.918c1.575,1.763,0.727,4.457-1.597,5.123C18.165,60.025,17.839,60.055,17.523,60.107z"/>
		<path fill="none" stroke="#000000" stroke-width="1.5" d="M22.485,43.047c2.834,1.246,5.224,3.477,6.724,6.454
			c1.114,2.21,1.563,4.563,1.372,7.037c-0.01,0.11-0.01,0.224-0.018,0.334c-0.029,0.371-0.273,0.632-0.646,0.632
			c-1.914,0.001-3.229-0.005-5.145-0.015"/>
	</g>
</g>
<g>
	
		<rect x="46.208" y="19.584" fill="none" stroke="#FFFFFF" stroke-width="1.5" stroke-miterlimit="10" width="4.79" height="7.565"/>
	
		<rect x="42.216" y="6.851" fill="none" stroke="#FFFFFF" stroke-width="1.5" stroke-miterlimit="10" width="12.775" height="20.299"/>
	<polyline fill="none" stroke="#FFFFFF" stroke-width="1.5" stroke-miterlimit="10" points="59.059,27.149 54.992,27.149 
		54.992,14.586 65.485,14.586 65.485,18.456 	"/>
	<polyline fill="none" stroke="#41C363" stroke-width="1.5" stroke-miterlimit="10" points="65.485,18.391 65.485,27.149 
		59.039,27.149 	"/>
	<line fill="none" stroke="#41C363" stroke-width="1.5" stroke-miterlimit="10" x1="50.963" y1="11.067" x2="46.213" y2="11.067"/>
	<line fill="none" stroke="#FFFFFF" stroke-width="1.5" stroke-miterlimit="10" x1="50.963" y1="15.425" x2="46.213" y2="15.425"/>
	<line fill="none" stroke="#FFFFFF" stroke-width="1.5" stroke-miterlimit="10" x1="61.999" y1="19.033" x2="58.415" y2="19.033"/>
	<line fill="none" stroke="#FFFFFF" stroke-width="1.5" stroke-miterlimit="10" x1="61.999" y1="23.389" x2="58.415" y2="23.389"/>
</g>
<rect x="36.852" y="90.691" opacity="0.5" enable-background="new    " width="34" height="34.002"/>
<g>
	
		<rect x="46.208" y="53.602" fill="none" stroke="#FFFFFF" stroke-width="1.5" stroke-miterlimit="10" width="4.79" height="7.564"/>
	
		<rect x="42.216" y="40.867" fill="none" stroke="#FFFFFF" stroke-width="1.5" stroke-miterlimit="10" width="12.775" height="20.299"/>
	<polyline fill="none" stroke="#FFFFFF" stroke-width="1.5" stroke-miterlimit="10" points="59.059,61.166 54.992,61.166 
		54.992,48.604 65.485,48.604 65.485,52.473 	"/>
	<polyline fill="none" stroke="#000000" stroke-width="1.5" stroke-miterlimit="10" points="65.485,52.407 65.485,61.166 
		59.039,61.166 	"/>
	<line fill="none" stroke="#000000" stroke-width="1.5" stroke-miterlimit="10" x1="50.963" y1="45.084" x2="46.213" y2="45.084"/>
	<line fill="none" stroke="#FFFFFF" stroke-width="1.5" stroke-miterlimit="10" x1="50.963" y1="49.441" x2="46.213" y2="49.441"/>
	<line fill="none" stroke="#FFFFFF" stroke-width="1.5" stroke-miterlimit="10" x1="61.999" y1="53.049" x2="58.415" y2="53.049"/>
	<line fill="none" stroke="#FFFFFF" stroke-width="1.5" stroke-miterlimit="10" x1="61.999" y1="57.404" x2="58.415" y2="57.404"/>
</g>
<path fill="none" stroke="#000000" stroke-width="1.5" stroke-miterlimit="10" d="M99.176,13.836c0-0.026,0-0.051,0-0.077"/>
<path fill="none" stroke="#41C363" stroke-width="1.5" stroke-miterlimit="10" d="M99.176,13.836"/>
<g>
	<g id="Livello_110_2_">
		<path fill="none" stroke="#FFFFFF" stroke-width="1.5" stroke-miterlimit="10" d="M94.779,13.836c0,2.329-1.896,4.218-4.236,4.218
			c-2.341,0-4.237-1.89-4.237-4.218s1.898-4.218,4.237-4.218C92.884,9.618,94.779,11.506,94.779,13.836"/>
	</g>
	<path fill="none" stroke="#41C363" stroke-width="1.5" stroke-miterlimit="10" d="M94.084,23.79l2.818-4.02
		c0.238-0.296,0.455-0.61,0.652-0.937l0.067-0.096l0.415-0.684c0.723-1.243,1.139-2.682,1.139-4.219"/>
	<path fill="none" stroke="#FFFFFF" stroke-width="1.5" stroke-miterlimit="10" d="M99.176,13.836c0-4.658-3.795-8.435-8.476-8.435
		c-4.68,0-8.476,3.777-8.476,8.435c0,2.048,0.736,3.926,1.956,5.388l6.528,9.375l3.429-4.887"/>
</g>
<rect x="73.704" y="90.677" opacity="0.5" enable-background="new    " width="33.999" height="34"/>
<path fill="none" stroke="#000000" stroke-width="1.5" stroke-miterlimit="10" d="M99.176,47.836c0-0.025,0-0.051,0-0.077"/>
<path fill="none" stroke="#41C363" stroke-width="1.5" stroke-miterlimit="10" d="M99.176,47.836"/>
<g>
	<g id="Livello_110_3_">
		<path fill="none" stroke="#FFFFFF" stroke-width="1.5" stroke-miterlimit="10" d="M94.779,47.836c0,2.329-1.896,4.219-4.236,4.219
			c-2.341,0-4.237-1.891-4.237-4.219s1.898-4.218,4.237-4.218C92.884,43.618,94.779,45.506,94.779,47.836"/>
	</g>
	<path fill="none" stroke="#000000" stroke-width="1.5" stroke-miterlimit="10" d="M94.084,57.79l2.818-4.021
		c0.238-0.297,0.455-0.609,0.652-0.938l0.067-0.097l0.415-0.686c0.723-1.242,1.139-2.682,1.139-4.219"/>
	<path fill="none" stroke="#FFFFFF" stroke-width="1.5" stroke-miterlimit="10" d="M99.176,47.836c0-4.658-3.795-8.436-8.476-8.436
		c-4.68,0-8.476,3.775-8.476,8.436c0,2.048,0.736,3.926,1.956,5.389l6.528,9.375l3.429-4.888"/>
</g>
<g>
	<g>
		<path fill="#FFFFFF" stroke="#FFFFFF" stroke-width="0.6" stroke-miterlimit="10" d="M126.211,15.859c0-0.957,0-1.873,0-2.842
			c0.527,0,1.023,0,1.57,0c0,0.95,0,1.862,0,2.842C127.284,15.859,126.789,15.859,126.211,15.859z M127.482,14.253
			c0-0.352,0-0.666,0-0.956c-0.358,0-0.662,0-0.987,0c0,0.333,0,0.631,0,0.956C126.846,14.253,127.166,14.253,127.482,14.253z
			 M127.52,15.539c0-0.333,0-0.614,0-0.915c-0.354,0-0.699,0-1.021,0c0,0.328,0,0.611,0,0.915
			C126.843,15.539,127.152,15.539,127.52,15.539z"/>
		<path fill="#FFFFFF" stroke="#FFFFFF" stroke-width="0.6" stroke-miterlimit="10" d="M123.061,15.859c0-0.957,0-1.873,0-2.842
			c0.526,0,1.022,0,1.569,0c0,0.95,0,1.862,0,2.842C124.135,15.859,123.639,15.859,123.061,15.859z M124.332,14.253
			c0-0.352,0-0.666,0-0.956c-0.359,0-0.663,0-0.986,0c0,0.333,0,0.631,0,0.956C123.698,14.253,124.016,14.253,124.332,14.253z
			 M124.37,15.539c0-0.333,0-0.614,0-0.915c-0.356,0-0.7,0-1.021,0c0,0.328,0,0.611,0,0.915
			C123.693,15.539,124.001,15.539,124.37,15.539z"/>
		<path fill="#FFFFFF" stroke="#FFFFFF" stroke-width="0.6" stroke-miterlimit="10" d="M129.362,15.859c0-0.957,0-1.873,0-2.842
			c0.523,0,1.021,0,1.568,0c0,0.95,0,1.862,0,2.842C130.437,15.859,129.94,15.859,129.362,15.859z M130.633,14.253
			c0-0.352,0-0.666,0-0.956c-0.358,0-0.659,0-0.983,0c0,0.333,0,0.631,0,0.956C129.997,14.253,130.317,14.253,130.633,14.253z
			 M130.672,15.539c0-0.333,0-0.614,0-0.915c-0.354,0-0.698,0-1.021,0c0,0.328,0,0.611,0,0.915
			C129.994,15.539,130.302,15.539,130.672,15.539z"/>
	</g>
	<polyline fill="none" stroke="#41C363" stroke-width="2" stroke-miterlimit="10" points="127.922,20.924 125.902,24.55 
		128.104,24.55 125.889,27.869 	"/>
	<path fill="none" stroke="#41C363" stroke-width="1.5" stroke-miterlimit="10" d="M135.356,2.203
		c1.498,0.051,2.858,0.505,4.027,1.45c1.604,1.292,2.404,2.997,2.518,4.981"/>
	<path fill="none" stroke="#41C363" stroke-width="1.5" stroke-miterlimit="10" d="M135.226,4.657
		c0.063,0.006,0.129,0.001,0.191,0.001c1.966,0.007,3.786,1.725,3.915,3.694c0.009,0.14,0.047,0.28,0.042,0.419"/>
	<path fill="none" stroke="#FFFFFF" stroke-width="1.5" stroke-miterlimit="10" d="M117.359,19.091c0,3.277,0,6.181,0,9.458
		c0,1.204,0.531,1.766,1.717,1.766c4.951,0.004,10.842,0.004,15.795,0c1.123,0,1.717-0.611,1.717-1.732
		c0.002-6.571,0.002-12.772,0-19.344c-0.002-1.088-0.596-1.706-1.685-1.707c-4.99-0.007-10.919-0.008-15.908,0
		c-1.079,0.002-1.636,0.593-1.636,1.674C117.357,12.5,117.359,15.796,117.359,19.091z"/>
	<path fill="none" stroke="#FFFFFF" stroke-width="1.5" stroke-miterlimit="10" d="M133.646,18.108c0,0.309-0.25,0.559-0.561,0.559
		h-12.359c-0.31,0-0.56-0.25-0.56-0.559v-7.23c0-0.309,0.25-0.56,0.56-0.56h12.359c0.311,0,0.561,0.25,0.561,0.56V18.108z"/>
</g>
<rect x="110.555" y="90.691" opacity="0.5" enable-background="new    " width="34" height="34.002"/>
<g>
	<g>
		<path fill="#FFFFFF" stroke="#FFFFFF" stroke-width="0.6" stroke-miterlimit="10" d="M126.211,49.875c0-0.957,0-1.873,0-2.842
			c0.527,0,1.023,0,1.57,0c0,0.949,0,1.861,0,2.842C127.284,49.875,126.789,49.875,126.211,49.875z M127.482,48.27
			c0-0.353,0-0.666,0-0.955c-0.358,0-0.662,0-0.987,0c0,0.332,0,0.631,0,0.955C126.846,48.27,127.166,48.27,127.482,48.27z
			 M127.52,49.557c0-0.334,0-0.615,0-0.916c-0.354,0-0.699,0-1.021,0c0,0.327,0,0.61,0,0.916
			C126.843,49.557,127.152,49.557,127.52,49.557z"/>
		<path fill="#FFFFFF" stroke="#FFFFFF" stroke-width="0.6" stroke-miterlimit="10" d="M123.061,49.875c0-0.957,0-1.873,0-2.842
			c0.526,0,1.022,0,1.569,0c0,0.949,0,1.861,0,2.842C124.135,49.875,123.639,49.875,123.061,49.875z M124.332,48.27
			c0-0.353,0-0.666,0-0.955c-0.359,0-0.663,0-0.986,0c0,0.332,0,0.631,0,0.955C123.698,48.27,124.016,48.27,124.332,48.27z
			 M124.37,49.557c0-0.334,0-0.615,0-0.916c-0.356,0-0.7,0-1.021,0c0,0.327,0,0.61,0,0.916
			C123.693,49.557,124.001,49.557,124.37,49.557z"/>
		<path fill="#FFFFFF" stroke="#FFFFFF" stroke-width="0.6" stroke-miterlimit="10" d="M129.362,49.875c0-0.957,0-1.873,0-2.842
			c0.523,0,1.021,0,1.568,0c0,0.949,0,1.861,0,2.842C130.437,49.875,129.94,49.875,129.362,49.875z M130.633,48.27
			c0-0.353,0-0.666,0-0.955c-0.358,0-0.659,0-0.983,0c0,0.332,0,0.631,0,0.955C129.997,48.27,130.317,48.27,130.633,48.27z
			 M130.672,49.557c0-0.334,0-0.615,0-0.916c-0.354,0-0.698,0-1.021,0c0,0.327,0,0.61,0,0.916
			C129.994,49.557,130.302,49.557,130.672,49.557z"/>
	</g>
	<polyline fill="none" stroke="#000000" stroke-width="2" stroke-miterlimit="10" points="127.922,54.939 125.902,58.566 
		128.104,58.566 125.889,61.886 	"/>
	<path fill="none" stroke="#000000" stroke-width="1.5" stroke-miterlimit="10" d="M135.356,36.219
		c1.498,0.051,2.858,0.506,4.027,1.45c1.604,1.292,2.404,2.997,2.518,4.981"/>
	<path fill="none" stroke="#000000" stroke-width="1.5" stroke-miterlimit="10" d="M135.226,38.673
		c0.063,0.007,0.129,0.001,0.191,0.001c1.966,0.008,3.786,1.727,3.915,3.694c0.009,0.14,0.047,0.28,0.042,0.419"/>
	<path fill="none" stroke="#FFFFFF" stroke-width="1.5" stroke-miterlimit="10" d="M117.359,53.107c0,3.274,0,6.181,0,9.457
		c0,1.205,0.531,1.767,1.717,1.767c4.951,0.004,10.842,0.004,15.795,0c1.123,0,1.717-0.61,1.717-1.731
		c0.002-6.572,0.002-12.771,0-19.346c-0.002-1.088-0.596-1.706-1.685-1.707c-4.99-0.007-10.919-0.008-15.908,0
		c-1.079,0.002-1.636,0.594-1.636,1.674C117.357,46.518,117.359,49.813,117.359,53.107z"/>
	<path fill="none" stroke="#FFFFFF" stroke-width="1.5" stroke-miterlimit="10" d="M133.646,52.124c0,0.31-0.25,0.56-0.561,0.56
		h-12.359c-0.31,0-0.56-0.25-0.56-0.56v-7.229c0-0.31,0.25-0.561,0.56-0.561h12.359c0.311,0,0.561,0.25,0.561,0.561V52.124z"/>
</g>
<rect x="184.26" y="-56.693" width="34.001" height="34"/>
<rect x="221.114" y="-56.693" width="34.001" height="34"/>
<g>
	
		<polyline fill="none" stroke="#41C363" stroke-width="1.5" stroke-linecap="round" stroke-linejoin="round" stroke-miterlimit="10" points="
		161.502,20.875 160.739,20.875 160.739,13.32 165.397,13.32 	"/>
	
		<polyline fill="none" stroke="#FFFFFF" stroke-width="1.5" stroke-linecap="round" stroke-linejoin="round" stroke-miterlimit="10" points="
		167.013,13.32 168.294,13.32 168.294,20.875 164.519,20.875 	"/>
	
		<line fill="none" stroke="#41C363" stroke-width="1.5" stroke-linecap="round" stroke-linejoin="round" stroke-miterlimit="10" x1="178.931" y1="23.561" x2="172.952" y2="23.561"/>
	
		<line fill="none" stroke="#FFFFFF" stroke-width="1.5" stroke-linecap="round" stroke-linejoin="round" stroke-miterlimit="10" x1="172.952" y1="10.635" x2="178.931" y2="10.635"/>
	
		<line fill="none" stroke="#FFFFFF" stroke-width="1.5" stroke-linecap="round" stroke-linejoin="round" stroke-miterlimit="10" x1="172.952" y1="17.099" x2="178.931" y2="17.099"/>
	
		<line fill="none" stroke="#FFFFFF" stroke-width="1.5" stroke-linecap="round" stroke-linejoin="round" stroke-miterlimit="10" x1="156.081" y1="23.561" x2="150.103" y2="23.561"/>
	
		<line fill="none" stroke="#FFFFFF" stroke-width="1.5" stroke-linecap="round" stroke-linejoin="round" stroke-miterlimit="10" x1="150.103" y1="10.635" x2="156.081" y2="10.635"/>
	
		<line fill="none" stroke="#FFFFFF" stroke-width="1.5" stroke-linecap="round" stroke-linejoin="round" stroke-miterlimit="10" x1="150.103" y1="17.099" x2="156.081" y2="17.099"/>
	
		<line fill="none" stroke="#FFFFFF" stroke-width="1.5" stroke-linecap="round" stroke-linejoin="round" stroke-miterlimit="10" x1="170.979" y1="2.684" x2="170.979" y2="8.663"/>
	
		<line fill="none" stroke="#FFFFFF" stroke-width="1.5" stroke-linecap="round" stroke-linejoin="round" stroke-miterlimit="10" x1="158.056" y1="8.663" x2="158.056" y2="2.684"/>
	
		<line fill="none" stroke="#FFFFFF" stroke-width="1.5" stroke-linecap="round" stroke-linejoin="round" stroke-miterlimit="10" x1="164.519" y1="8.663" x2="164.519" y2="2.684"/>
	
		<line fill="none" stroke="#FFFFFF" stroke-width="1.5" stroke-linecap="round" stroke-linejoin="round" stroke-miterlimit="10" x1="170.979" y1="25.533" x2="170.979" y2="31.514"/>
	
		<line fill="none" stroke="#FFFFFF" stroke-width="1.5" stroke-linecap="round" stroke-linejoin="round" stroke-miterlimit="10" x1="158.056" y1="31.514" x2="158.056" y2="25.533"/>
	
		<line fill="none" stroke="#FFFFFF" stroke-width="1.5" stroke-linecap="round" stroke-linejoin="round" stroke-miterlimit="10" x1="164.519" y1="31.514" x2="164.519" y2="25.533"/>
	
		<polyline fill="none" stroke="#FFFFFF" stroke-width="1.5" stroke-linecap="round" stroke-linejoin="round" stroke-miterlimit="10" points="
		171.88,27.244 154.372,27.244 154.372,6.952 174.663,6.952 174.663,17.824 	"/>
	
		<polyline fill="none" stroke="#41C363" stroke-width="1.5" stroke-linecap="square" stroke-linejoin="round" stroke-miterlimit="10" points="
		174.663,18.761 174.663,27.244 172.694,27.244 	"/>
</g>
<rect x="147.408" y="90.691" opacity="0.5" enable-background="new    " width="34.001" height="34.002"/>
<g>
	<path fill="none" stroke="#FFFFFF" stroke-width="1.5" stroke-miterlimit="10" d="M206.067,22.672c0-2.941-2.385-5.323-5.319-5.323
		"/>
	<circle fill="none" stroke="#FFFFFF" stroke-width="1.5" stroke-miterlimit="10" cx="200.75" cy="9.403" r="5.321"/>
	<path fill="none" stroke="#41C363" stroke-width="1.5" stroke-miterlimit="10" d="M200.75,17.349c-2.938,0-5.321,2.382-5.321,5.323
		"/>
	<path fill="none" stroke="#FFFFFF" stroke-width="1.5" stroke-miterlimit="10" d="M195.429,22.672v5.556h8.713"/>
	<path fill="none" stroke="#FFFFFF" stroke-width="1.5" stroke-miterlimit="10" d="M197.354,28.227h8.713v-5.555"/>
</g>
<rect x="184.26" y="90.691" opacity="0.5" enable-background="new    " width="34.001" height="34.002"/>
<g>
	<path fill="none" stroke="#FFFFFF" stroke-width="1.5" stroke-miterlimit="10" d="M206.067,56.672c0-2.941-2.385-5.322-5.319-5.322
		"/>
	<circle fill="none" stroke="#FFFFFF" stroke-width="1.5" stroke-miterlimit="10" cx="200.75" cy="43.402" r="5.321"/>
	<path fill="none" stroke="#000000" stroke-width="1.5" stroke-miterlimit="10" d="M200.75,51.35c-2.938,0-5.321,2.381-5.321,5.322"
		/>
	<path fill="none" stroke="#FFFFFF" stroke-width="1.5" stroke-miterlimit="10" d="M195.429,56.672v5.557h8.713"/>
	<path fill="none" stroke="#FFFFFF" stroke-width="1.5" stroke-miterlimit="10" d="M197.354,62.227h8.713v-5.555"/>
</g>
<g>
	
		<line fill="none" stroke="#FFFFFF" stroke-width="1.5" stroke-miterlimit="10" x1="237.183" y1="24.677" x2="237.183" y2="26.954"/>
	
		<line fill="none" stroke="#FFFFFF" stroke-width="1.5" stroke-miterlimit="10" x1="235.203" y1="24.714" x2="243.297" y2="24.714"/>
	<g>
		<path fill="none" stroke="#FFFFFF" stroke-width="1.5" stroke-miterlimit="10" d="M246.595,26.751
			c-0.303,0.147-0.643,0.231-1,0.231c-1.248,0-2.259-1.015-2.259-2.263c0-1.248,1.013-2.262,2.259-2.262c0.02,0,0.033,0,0.051,0"/>
	</g>
	
		<line fill="none" stroke="#FFFFFF" stroke-width="1.5" stroke-miterlimit="10" x1="240.698" y1="24.677" x2="240.698" y2="28.712"/>
	<g>
		<path fill="none" stroke="#41C363" stroke-width="1.5" stroke-miterlimit="10" d="M245.595,22.458
			c1.248,0,2.262,1.014,2.262,2.261c0,0.901-0.528,1.682-1.295,2.045"/>
	</g>
</g>
<g>
	<path fill="none" stroke="#FFFFFF" stroke-width="1.5" stroke-miterlimit="10" d="M240.647,22.515c0-0.172-0.01-0.342-0.023-0.51
		c-0.256-2.752-2.574-4.906-5.391-4.906"/>
	<circle fill="none" stroke="#FFFFFF" stroke-width="1.5" stroke-miterlimit="10" cx="235.235" cy="9.014" r="5.414"/>
	<path fill="none" stroke="#41C363" stroke-width="1.5" stroke-miterlimit="10" d="M235.235,17.099
		c-2.988,0-5.416,2.423-5.416,5.416"/>
	<path fill="none" stroke="#FFFFFF" stroke-width="1.5" stroke-miterlimit="10" d="M229.819,22.515v5.652h4.469"/>
	<path fill="none" stroke="#FFFFFF" stroke-width="1.5" stroke-miterlimit="10" d="M240.647,22.515"/>
	<path fill="none" stroke="#FFFFFF" stroke-width="1.5" stroke-miterlimit="10" d="M231.782,28.167"/>
</g>
<rect x="221.114" y="90.688" opacity="0.5" enable-background="new    " width="34.001" height="34.006"/>
<g>
	
		<line fill="none" stroke="#FFFFFF" stroke-width="1.5" stroke-miterlimit="10" x1="237.183" y1="58.675" x2="237.183" y2="60.953"/>
	
		<line fill="none" stroke="#FFFFFF" stroke-width="1.5" stroke-miterlimit="10" x1="235.203" y1="58.712" x2="243.297" y2="58.712"/>
	<g>
		<path fill="none" stroke="#FFFFFF" stroke-width="1.5" stroke-miterlimit="10" d="M246.595,60.75c-0.303,0.146-0.643,0.23-1,0.23
			c-1.248,0-2.259-1.016-2.259-2.264s1.013-2.262,2.259-2.262c0.02,0,0.033,0,0.051,0"/>
	</g>
	
		<line fill="none" stroke="#FFFFFF" stroke-width="1.5" stroke-miterlimit="10" x1="240.698" y1="58.675" x2="240.698" y2="62.711"/>
	<g>
		<path fill="none" stroke="#000000" stroke-width="1.5" stroke-miterlimit="10" d="M245.595,56.456
			c1.248,0,2.262,1.015,2.262,2.261c0,0.901-0.528,1.684-1.295,2.047"/>
	</g>
</g>
<g>
	<path fill="none" stroke="#FFFFFF" stroke-width="1.5" stroke-miterlimit="10" d="M240.647,56.514c0-0.173-0.01-0.343-0.023-0.511
		c-0.256-2.753-2.574-4.907-5.391-4.907"/>
	<circle fill="none" stroke="#FFFFFF" stroke-width="1.5" stroke-miterlimit="10" cx="235.235" cy="43.009" r="5.415"/>
	<path fill="none" stroke="#000000" stroke-width="1.5" stroke-miterlimit="10" d="M235.235,51.096
		c-2.988,0-5.416,2.424-5.416,5.418"/>
	<path fill="none" stroke="#FFFFFF" stroke-width="1.5" stroke-miterlimit="10" d="M229.819,56.514v5.652h4.469"/>
	<path fill="none" stroke="#FFFFFF" stroke-width="1.5" stroke-miterlimit="10" d="M240.647,56.514"/>
	<path fill="none" stroke="#FFFFFF" stroke-width="1.5" stroke-miterlimit="10" d="M231.782,62.166"/>
</g>
<g>
	
		<polyline fill="none" stroke="#000000" stroke-width="1.5" stroke-linecap="round" stroke-linejoin="round" stroke-miterlimit="10" points="
		161.502,54.893 160.739,54.893 160.739,47.336 165.397,47.336 	"/>
	
		<polyline fill="none" stroke="#FFFFFF" stroke-width="1.5" stroke-linecap="round" stroke-linejoin="round" stroke-miterlimit="10" points="
		167.013,47.336 168.294,47.336 168.294,54.893 164.519,54.893 	"/>
	
		<line fill="none" stroke="#000000" stroke-width="1.5" stroke-linecap="round" stroke-linejoin="round" stroke-miterlimit="10" x1="178.931" y1="57.577" x2="172.952" y2="57.577"/>
	
		<line fill="none" stroke="#FFFFFF" stroke-width="1.5" stroke-linecap="round" stroke-linejoin="round" stroke-miterlimit="10" x1="172.952" y1="44.65" x2="178.931" y2="44.65"/>
	
		<line fill="none" stroke="#FFFFFF" stroke-width="1.5" stroke-linecap="round" stroke-linejoin="round" stroke-miterlimit="10" x1="172.952" y1="51.115" x2="178.931" y2="51.115"/>
	
		<line fill="none" stroke="#FFFFFF" stroke-width="1.5" stroke-linecap="round" stroke-linejoin="round" stroke-miterlimit="10" x1="156.081" y1="57.577" x2="150.103" y2="57.577"/>
	
		<line fill="none" stroke="#FFFFFF" stroke-width="1.5" stroke-linecap="round" stroke-linejoin="round" stroke-miterlimit="10" x1="150.103" y1="44.65" x2="156.081" y2="44.65"/>
	
		<line fill="none" stroke="#FFFFFF" stroke-width="1.5" stroke-linecap="round" stroke-linejoin="round" stroke-miterlimit="10" x1="150.103" y1="51.115" x2="156.081" y2="51.115"/>
	
		<line fill="none" stroke="#FFFFFF" stroke-width="1.5" stroke-linecap="round" stroke-linejoin="round" stroke-miterlimit="10" x1="170.979" y1="36.7" x2="170.979" y2="42.68"/>
	
		<line fill="none" stroke="#FFFFFF" stroke-width="1.5" stroke-linecap="round" stroke-linejoin="round" stroke-miterlimit="10" x1="158.056" y1="42.68" x2="158.056" y2="36.7"/>
	
		<line fill="none" stroke="#FFFFFF" stroke-width="1.5" stroke-linecap="round" stroke-linejoin="round" stroke-miterlimit="10" x1="164.519" y1="42.68" x2="164.519" y2="36.7"/>
	
		<line fill="none" stroke="#FFFFFF" stroke-width="1.5" stroke-linecap="round" stroke-linejoin="round" stroke-miterlimit="10" x1="170.979" y1="59.549" x2="170.979" y2="65.529"/>
	
		<line fill="none" stroke="#FFFFFF" stroke-width="1.5" stroke-linecap="round" stroke-linejoin="round" stroke-miterlimit="10" x1="158.056" y1="65.529" x2="158.056" y2="59.549"/>
	
		<line fill="none" stroke="#FFFFFF" stroke-width="1.5" stroke-linecap="round" stroke-linejoin="round" stroke-miterlimit="10" x1="164.519" y1="65.529" x2="164.519" y2="59.549"/>
	
		<polyline fill="none" stroke="#FFFFFF" stroke-width="1.5" stroke-linecap="round" stroke-linejoin="round" stroke-miterlimit="10" points="
		171.88,61.261 154.372,61.261 154.372,40.969 174.663,40.969 174.663,51.841 	"/>
	
		<polyline fill="none" stroke="#000000" stroke-width="1.5" stroke-linecap="square" stroke-linejoin="round" stroke-miterlimit="10" points="
		174.663,52.777 174.663,61.261 172.694,61.261 	"/>
</g>
<rect x="257.966" y="-56.693" width="34.001" height="34"/>
<line fill="none" stroke="#FFFFFF" stroke-width="1.5" stroke-linecap="round" stroke-linejoin="round" stroke-miterlimit="10" x1="274.621" y1="13.867" x2="274.621" y2="18.433"/>
<circle fill="#FFFFFF" cx="274.621" cy="22.167" r="1.094"/>
<polyline fill="none" stroke="#FFFFFF" stroke-width="1.5" stroke-linecap="round" stroke-linejoin="round" stroke-miterlimit="10" points="
	273.793,7.292 274.621,5.802 285.928,26.155 268.531,26.155 "/>
<polyline fill="none" stroke="#41C363" stroke-width="1.5" stroke-linecap="round" stroke-linejoin="round" stroke-miterlimit="10" points="
	268.707,26.155 263.313,26.155 274.621,5.802 "/>
<rect x="257.966" y="90.709" opacity="0.5" enable-background="new    " width="34.001" height="34.001"/>
<line fill="none" stroke="#FFFFFF" stroke-width="1.5" stroke-linecap="round" stroke-linejoin="round" stroke-miterlimit="10" x1="274.621" y1="47.884" x2="274.621" y2="52.449"/>
<circle fill="#FFFFFF" cx="274.621" cy="56.184" r="1.094"/>
<polyline fill="none" stroke="#FFFFFF" stroke-width="1.5" stroke-linecap="round" stroke-linejoin="round" stroke-miterlimit="10" points="
	273.793,41.309 274.621,39.818 285.928,60.172 268.531,60.172 "/>
<polyline fill="none" stroke="#000000" stroke-width="1.5" stroke-linecap="round" stroke-linejoin="round" stroke-miterlimit="10" points="
	268.707,60.172 263.313,60.172 274.621,39.818 "/>
</svg>
